<svg width="30" height="32" viewBox="0 0 30 32" fill="none" xmlns="http://www.w3.org/2000/svg">
<g id="airpodsmax">
<g id="Group">
<path id="Vector" d="M1.33672 18.4714H2.63164V15.6112H1.33672V18.4714ZM8.06747 31.8759C9.84621 31.8759 10.6715 30.2395 9.70391 28.5035L4.38193 19.0975C3.92657 18.3148 3.24353 17.9591 2.38973 17.9591C1.05212 17.9591 0.326398 18.9552 0.440238 20.2785C0.724836 21.972 1.86323 24.6756 3.24353 26.8955C5.42071 30.581 6.68716 31.8759 8.06747 31.8759ZM28.8147 18.4714V15.6112H27.5198V18.4714H28.8147ZM22.0839 31.8759C23.4642 31.8759 24.7307 30.581 26.9079 26.8955C28.274 24.6756 29.4266 21.972 29.7112 20.2785C29.825 18.9552 29.0993 17.9591 27.7617 17.9591C26.9079 17.9591 26.2249 18.3148 25.7695 19.0975L20.4475 28.5035C19.4657 30.2395 20.3052 31.8759 22.0839 31.8759ZM0.852905 15.3693C0.852905 16.038 1.2798 16.4507 1.94861 16.4507C2.61741 16.4507 3.01586 16.038 3.01586 15.3693C3.087 7.69932 7.6548 2.83269 15.0686 2.83269C22.4967 2.83269 27.0502 7.69932 27.1213 15.3693C27.1213 16.038 27.534 16.4507 28.2028 16.4507C28.8717 16.4507 29.2843 16.038 29.2843 15.3693C29.2843 6.64632 23.9196 0.655518 15.0686 0.655518C6.21759 0.655518 0.852905 6.64632 0.852905 15.3693Z" fill="#262626"/>
<path id="Vector_2" d="M12.3223 29.0584C13.2329 28.5319 13.4749 27.3508 12.8915 26.3404L8.09598 17.8737C7.51256 16.8633 6.37416 16.4933 5.47768 17.0198C4.92272 17.3187 4.79464 17.8452 5.07925 18.3433L10.9704 28.7026C11.2693 29.2149 11.7815 29.3572 12.3223 29.0584ZM17.8292 29.0584C18.37 29.3572 18.8823 29.2149 19.1669 28.7026L25.058 18.3433C25.3568 17.8452 25.2288 17.3187 24.6738 17.0198C23.7631 16.4933 22.6389 16.8633 22.0414 17.8737L17.2458 26.3404C16.6624 27.3508 16.9185 28.5319 17.8292 29.0584ZM6.75837 7.78467C9.09207 6.51821 11.8242 5.89209 15.0687 5.89209C18.3273 5.89209 21.0595 6.51821 23.3789 7.78467C21.5148 5.39404 18.8539 4.19873 15.0687 4.19873C11.2977 4.19873 8.63672 5.39404 6.75837 7.78467Z" fill="#262626"/>
</g>
</g>
</svg>
