<svg width="21" height="34" viewBox="0 0 21 34" fill="none" xmlns="http://www.w3.org/2000/svg">
<g id="backpack.fill">
<g id="Group">
<path id="Vector" d="M6.777 32.4186H14.4486C18.818 32.4186 20.9777 30.2088 20.9399 25.7892C20.8897 20.7418 20.8646 17.0755 20.739 14.3257C20.375 6.23981 18.1024 3.86677 10.6191 3.86677C3.13581 3.86677 0.850652 6.23981 0.486533 14.3257C0.360975 17.0755 0.335864 20.7418 0.285641 25.7892C0.247973 30.2088 2.40757 32.4186 6.777 32.4186ZM6.41287 27.434C5.33307 27.434 4.64251 26.7309 4.64251 25.6762V19.1974C4.64251 18.1302 5.33307 17.427 6.41287 17.427H14.8253C15.8925 17.427 16.5831 18.1302 16.5831 19.1974V25.6762C16.5831 26.7309 15.8925 27.434 14.8253 27.434H6.41287ZM4.64251 22.2611H16.5831V20.7669H4.64251V22.2611ZM10.6191 0.928711C8.20835 0.928711 6.51332 2.56097 6.51332 4.78335H8.28369C8.28369 3.56543 9.23793 2.69908 10.6191 2.69908C11.9876 2.69908 12.9545 3.56543 12.9545 4.78335H14.7248C14.7248 2.56097 13.0173 0.928711 10.6191 0.928711Z" fill="#262626"/>
</g>
</g>
</svg>
