<svg width="25" height="30" viewBox="0 0 25 30" fill="none" xmlns="http://www.w3.org/2000/svg">
<g id="bolt.shield.fill">
<g id="Group">
<path id="Vector" d="M12.4972 29.1587C12.7249 29.1587 13.0807 29.0733 13.4364 28.8883C21.5332 24.6478 24.1373 22.5275 24.1373 17.419V6.68966C24.1373 5.22398 23.5111 4.75439 22.3159 4.25634C20.651 3.57331 15.329 1.63804 13.6783 1.06885C13.2941 0.940779 12.8957 0.869629 12.4972 0.869629C12.0988 0.869629 11.7004 0.955009 11.3304 1.06885C9.6655 1.60958 4.3435 3.58754 2.67861 4.25634C1.49752 4.74016 0.857178 5.22398 0.857178 6.68966V17.419C0.857178 22.5275 3.60355 24.4059 11.5581 28.8883C11.9281 29.0876 12.2696 29.1587 12.4972 29.1587ZM6.07955 15.4837C6.07955 15.313 6.16493 15.0995 6.32146 14.9146L14.3614 4.82554C14.9732 4.05713 15.9979 4.56941 15.6279 5.52281L12.9811 12.6378H17.9473C18.3315 12.6378 18.6161 12.9081 18.6161 13.2924C18.6161 13.4631 18.5307 13.6766 18.3742 13.8615L10.3343 23.9506C9.72241 24.719 8.71209 24.2066 9.06784 23.2675L11.7288 16.1383H6.74836C6.37839 16.1383 6.07955 15.8679 6.07955 15.4837Z" fill="#262626"/>
</g>
</g>
</svg>
