<svg width="105" height="79" viewBox="0 0 105 79" fill="none" xmlns="http://www.w3.org/2000/svg">
<g id="Abstract Design">
<g id="Petals">
<g id="Group 72">
<path id="Rectangle 130" d="M42.4349 34.5273C29.4971 21.9392 38.4091 0 56.4604 0C74.5117 0 83.4236 21.9392 70.4858 34.5273L56.4604 48.1737L42.4349 34.5273Z" fill="#EEF8D3"/>
<path id="Rectangle 131" d="M42.516 78.4727C29.5782 91.0608 38.4901 113 56.5414 113C74.5927 113 83.5047 91.0608 70.5668 78.4727L56.5414 64.8263L42.516 78.4727Z" fill="#EEF8D3"/>
</g>
<g id="Group 73">
<path id="Rectangle 130_2" d="M34.5273 70.5651C21.9392 83.5029 0 74.5909 0 56.5396C0 38.4883 21.9392 29.5764 34.5273 42.5142L48.1737 56.5396L34.5273 70.5651Z" fill="#EEF8D3"/>
<path id="Rectangle 131_2" d="M78.4727 70.4835C91.0608 83.4214 113 74.5094 113 56.4581C113 38.4068 91.0608 29.4948 78.4727 42.4327L64.8263 56.4581L78.4727 70.4835Z" fill="#EEF8D3"/>
</g>
</g>
</g>
</svg>
