<svg width="18" height="18" viewBox="0 0 18 18" fill="none" xmlns="http://www.w3.org/2000/svg">
<g id="cricket.ball.fill">
<g id="Group">
<path id="Vector" d="M0.427734 8.96652C0.427734 10.3644 0.770927 11.6786 1.39035 12.8504L2.83845 11.4024C3.03097 11.2099 3.32394 11.2099 3.51646 11.4024C3.70898 11.5949 3.71736 11.8879 3.51646 12.0887L1.89258 13.7127C2.10184 14.0056 2.31111 14.2902 2.55385 14.5497L14.5572 2.5547C14.2893 2.31196 13.9964 2.09432 13.7118 1.89343L12.0712 3.53406C11.8786 3.72658 11.5773 3.71821 11.3847 3.53406C11.1922 3.34153 11.1922 3.04857 11.3847 2.84767L12.8412 1.39957C11.6777 0.771781 10.3552 0.428589 8.95731 0.428589C4.29492 0.428589 0.427734 4.29578 0.427734 8.96652ZM10.7905 4.81475L9.64366 5.96151C9.45116 6.15403 9.14981 6.14567 8.95731 5.96151C8.77316 5.76899 8.76481 5.45928 8.95731 5.27513L10.1124 4.12837C10.3049 3.94422 10.6063 3.93585 10.7905 4.12837C10.983 4.32089 10.983 4.62223 10.7905 4.81475ZM8.37138 7.2422L7.21624 8.38895C7.03208 8.57309 6.73075 8.57309 6.53823 8.38895C6.34571 8.19645 6.34571 7.89509 6.53823 7.70259L7.68502 6.55582C7.87752 6.3633 8.17888 6.3633 8.37138 6.55582C8.55552 6.73998 8.56388 7.05805 8.37138 7.2422ZM5.94392 9.6613L4.80553 10.808C4.60463 11.0006 4.31166 10.9922 4.11914 10.808C3.92662 10.6155 3.92662 10.3226 4.11914 10.13L5.25753 8.97488C5.45006 8.78238 5.75139 8.79073 5.94392 8.97488C6.12807 9.16745 6.14481 9.46873 5.94392 9.6613ZM8.96566 17.5044C13.6365 17.5044 17.5036 13.6289 17.5036 8.96652C17.5036 7.57702 17.1604 6.25448 16.541 5.09097L15.0929 6.53071C14.892 6.7316 14.6075 6.72323 14.4149 6.53071C14.2307 6.33819 14.214 6.04522 14.4149 5.84433L16.0388 4.22881C15.8379 3.93585 15.6286 3.65125 15.3859 3.39176L3.38253 15.3867C3.65039 15.6211 3.93499 15.8387 4.21958 16.0397L5.86021 14.399C6.06111 14.1897 6.35408 14.2065 6.5466 14.399C6.73912 14.5915 6.74749 14.8762 6.5466 15.077L5.08175 16.5419C6.25363 17.1529 7.5678 17.5044 8.96566 17.5044ZM13.8122 7.80302L12.6738 8.95816C12.4813 9.15066 12.1799 9.1423 11.9874 8.95816C11.8033 8.7573 11.7949 8.4643 11.9874 8.2718L13.1342 7.12502C13.3267 6.9325 13.6197 6.9325 13.8122 7.12502C14.0131 7.30917 14.0047 7.61052 13.8122 7.80302ZM11.3932 10.2305L10.2464 11.3689C10.0539 11.5698 9.75252 11.5698 9.56002 11.3689C9.37581 11.1847 9.36745 10.875 9.56002 10.6825L10.7151 9.54409C10.8993 9.35995 11.209 9.35995 11.3932 9.54409C11.5857 9.73659 11.5857 10.0296 11.3932 10.2305ZM8.97402 12.6496L7.81895 13.7963C7.62638 13.9805 7.33343 13.9889 7.14091 13.7963C6.94839 13.6038 6.94839 13.3024 7.14091 13.1099L8.28766 11.9632C8.48016 11.7707 8.78152 11.7874 8.97402 11.9632C9.15824 12.1641 9.16659 12.4654 8.97402 12.6496Z" fill="#CBEA7B"/>
</g>
</g>
</svg>
