<svg width="29" height="17" viewBox="0 0 29 17" fill="none" xmlns="http://www.w3.org/2000/svg">
<g id="dumbbell.fill">
<g id="Group">
<path id="Vector" d="M1.65019 14.4187C2.55028 14.4187 3.23923 13.7297 3.23923 12.8519V4.45107C3.23923 3.5621 2.55028 2.86203 1.65019 2.86203C0.761219 2.86203 0.0722656 3.5621 0.0722656 4.45107V12.8519C0.0722656 13.7297 0.761219 14.4187 1.65019 14.4187ZM6.92847 16.8745C8.40639 16.8745 9.43982 15.8855 9.43982 14.4853V2.82869C9.43982 1.41745 8.40639 0.428467 6.92847 0.428467C5.46166 0.428467 4.42823 1.41745 4.42823 2.82869V14.4853C4.42823 15.8855 5.46166 16.8745 6.92847 16.8745ZM10.7288 10.7961H17.6295V6.50682H10.7288V10.7961ZM21.4298 16.8745C22.9077 16.8745 23.9412 15.8855 23.9412 14.4853V2.82869C23.9412 1.41745 22.9077 0.428467 21.4298 0.428467C19.9631 0.428467 18.9296 1.41745 18.9296 2.82869V14.4853C18.9296 15.8855 19.9631 16.8745 21.4298 16.8745ZM26.597 14.4187C27.486 14.4187 28.186 13.7297 28.186 12.8519V4.45107C28.186 3.5621 27.486 2.86203 26.597 2.86203C25.7081 2.86203 25.0191 3.5621 25.0191 4.45107V12.8519C25.0191 13.7297 25.7081 14.4187 26.597 14.4187Z" fill="#262626"/>
</g>
</g>
</svg>
