<svg width="24" height="23" viewBox="0 0 24 23" fill="none" xmlns="http://www.w3.org/2000/svg">
<g id="camera.macro" clip-path="url(#clip0_1_3646)">
<g id="Group">
<path id="Vector" d="M5.73661 1.62055C5.24442 2.75559 5.01339 3.89064 5.01339 4.99555C5.01339 8.66185 7.60491 11.6652 11.6428 11.6652C15.6808 11.6652 18.2723 8.66185 18.2723 4.99555C18.2723 3.89064 18.0413 2.75559 17.5592 1.62055C17.3382 1.13841 16.7656 1.0681 16.3839 1.45984L14.1339 3.75002L12.2154 1.26899C11.904 0.867205 11.3817 0.867205 11.0804 1.26899L9.16183 3.75002L6.90178 1.45984C6.52009 1.0681 5.94754 1.13841 5.73661 1.62055ZM10.8393 21.8907C10.8393 22.3426 11.1909 22.644 11.6428 22.644C16.8359 22.644 21.6071 19.4398 23.1741 14.9398C23.3951 14.327 23.164 13.9353 22.5111 13.9353C17.3783 13.9353 13.6819 16.9486 12.1953 20.7556L12.4565 21.0971V10.6507H10.8393V21.8907ZM9.4632 18.0536C7.57478 15.6027 4.55133 13.9353 0.744419 13.9353C0.091517 13.9353 -0.13951 14.327 0.0814722 14.9398C1.42745 18.8371 5.16406 21.7701 9.54351 22.4632C9.49329 22.2924 9.4632 22.0915 9.4632 21.8907V18.0536Z" fill="#262626"/>
</g>
</g>
<defs>
<clipPath id="clip0_1_3646">
<rect width="23.2556" height="21.7869" fill="white" transform="translate(0 0.857178)"/>
</clipPath>
</defs>
</svg>
