<svg width="18" height="31" viewBox="0 0 18 31" fill="none" xmlns="http://www.w3.org/2000/svg">
<g id="fork.knife">
<g id="Group">
<path id="Vector" d="M4.73106 29.1169C5.78574 29.1169 6.43865 28.5268 6.4261 27.4973L6.17498 13.397C6.17498 12.9576 6.36332 12.6312 6.75255 12.4554C8.40991 11.7271 9.12559 10.9613 9.0377 8.76396L8.68614 1.05469C8.66103 0.502232 8.33458 0.188337 7.81979 0.188337C7.33011 0.188337 7.02877 0.514788 7.02877 1.0798L7.11666 8.57562C7.11666 9.01507 6.84044 9.2913 6.4261 9.2913C5.9992 9.2913 5.69786 9.02762 5.69786 8.61328L5.57231 0.853795C5.55975 0.313895 5.24585 0 4.73106 0C4.21627 0 3.91493 0.313895 3.90238 0.853795L3.77682 8.61328C3.77682 9.02762 3.47548 9.2913 3.04859 9.2913C2.63425 9.2913 2.34546 9.01507 2.34546 8.57562L2.43335 1.0798C2.43335 0.514788 2.14457 0.188337 1.64234 0.188337C1.12755 0.188337 0.801095 0.502232 0.775984 1.05469L0.436977 8.76396C0.336531 10.9613 1.05221 11.7271 2.70958 12.4554C3.09881 12.6312 3.28714 12.9576 3.28714 13.397L3.04859 27.4973C3.03603 28.5268 3.67637 29.1169 4.73106 29.1169ZM14.5497 18.1682L14.286 27.4345C14.2484 28.5268 14.9138 29.1169 15.9559 29.1169C17.0232 29.1169 17.6761 28.577 17.6761 27.5726V0.941685C17.6761 0.301339 17.2366 0 16.7846 0C16.3075 0 15.9937 0.251116 15.5919 0.841239C13.5703 3.67885 12.2395 8.98995 12.2395 14.0123V14.6275C12.2395 15.4938 12.5533 16.1342 13.1812 16.5485L13.9219 17.0508C14.3739 17.3646 14.5748 17.7163 14.5497 18.1682Z" fill="#262626"/>
</g>
</g>
</svg>
