<svg width="27" height="28" viewBox="0 0 27 28" fill="none" xmlns="http://www.w3.org/2000/svg">
<g id="graduationcap.fill">
<g id="Group">
<path id="Vector" d="M25.9377 8.83567L16.1798 4.37039C15.1632 3.9119 14.3359 3.69261 13.5086 3.71255C12.6913 3.69261 11.864 3.9119 10.8374 4.37039L1.08946 8.83567C0.451561 9.12476 0.142578 9.63304 0.142578 10.1414C0.142578 10.6497 0.451561 11.1481 1.08946 11.4471L5.19596 13.321L11.5052 10.3607C11.4454 10.2909 11.4254 10.2112 11.4254 10.1414C11.4254 9.51346 12.482 9.03503 13.5485 9.03503C14.6249 9.03503 15.6615 9.51346 15.6615 10.1414C15.6615 10.7893 14.6249 11.2776 13.5485 11.2776C13.2196 11.2776 12.8907 11.2278 12.6016 11.1481L6.58139 13.9688L10.8374 15.9224C11.864 16.3908 12.6913 16.5902 13.5086 16.5802C14.3359 16.5902 15.1632 16.3908 16.1798 15.9224L25.9377 11.4471C26.5756 11.1481 26.8846 10.6497 26.8846 10.1414C26.8846 9.63304 26.5756 9.12476 25.9377 8.83567ZM6.54153 15.444V21.504C8.21602 22.5207 10.6082 23.1386 13.5086 23.1386C19.3893 23.1386 23.1768 20.6169 23.1768 17.6368V14.208L16.7479 17.1484C15.5817 17.6866 14.5253 17.9557 13.5086 17.9458C12.5019 17.9557 11.4354 17.6866 10.2692 17.1484L6.54153 15.444ZM3.85038 14.208V17.6368C3.85038 18.5039 4.34874 19.5803 5.24579 20.4974V14.8559L3.85038 14.208ZM5.24579 23.8164H6.54153V21.504C6.04317 21.205 5.60461 20.8661 5.24579 20.4974V23.8164ZM4.45838 23.8862V26.5076C4.45838 27.295 4.96671 27.8033 5.75412 27.8033H6.02323C6.81064 27.8033 7.31897 27.295 7.31897 26.5076V23.8862C7.31897 23.0988 6.81064 22.5904 6.02323 22.5904H5.75412C4.96671 22.5904 4.45838 23.0988 4.45838 23.8862Z" fill="#262626"/>
</g>
</g>
</svg>
