<svg width="108" height="13" viewBox="0 0 108 13" fill="none" xmlns="http://www.w3.org/2000/svg">
<g id="Nutritionist">
<path d="M10.1099 9.60101V1.05001H12.6939V12.95H8.97091L3.75191 4.41601H3.46291V12.95H0.878906V1.05001H4.36391V1.06701H4.60191L9.80391 9.60101H10.1099Z" fill="white"/>
<path d="M22.0949 3.41301H24.6789V12.95H22.0949V11.556H21.9759C21.3639 12.406 20.4969 12.95 18.7799 12.95C14.7509 12.95 14.6489 9.58401 14.6489 8.19001V3.41301H17.2159V8.19001C17.2159 8.93801 17.0459 10.74 19.5279 10.74C21.7549 10.74 22.0949 9.31201 22.0949 8.02001V3.41301Z" fill="white"/>
<path d="M30.1529 5.62301V9.00601V9.21001C30.1529 10.587 30.7649 10.4 33.2469 10.264V12.78C33.2469 12.78 32.7369 12.95 30.1529 12.95C27.5519 12.95 27.5519 10.825 27.5519 9.44801V5.62301H26.2939V3.44701H27.5519V0.693014H30.1529V3.44701H33.2469V5.62301H30.1529Z" fill="white"/>
<path d="M40.525 3.41301C41.205 3.41301 41.766 3.56601 42.208 3.66801L41.8 6.09901C41.562 6.03101 40.899 5.89501 40.083 5.89501C38.162 5.89501 37.601 7.39101 37.601 8.68301V12.95H35.017V3.41301H37.601V4.82401H37.754C38.298 3.90601 38.876 3.41301 40.525 3.41301Z" fill="white"/>
<path d="M46.1577 12.95H43.5907V3.48101H46.1577V12.95ZM46.1577 2.80101H43.5907V0.489014H46.1577V2.80101Z" fill="white"/>
<path d="M51.7901 5.62301V9.00601V9.21001C51.7901 10.587 52.4021 10.4 54.8841 10.264V12.78C54.8841 12.78 54.3741 12.95 51.7901 12.95C49.1891 12.95 49.1891 10.825 49.1891 9.44801V5.62301H47.9311V3.44701H49.1891V0.693014H51.7901V3.44701H54.8841V5.62301H51.7901Z" fill="white"/>
<path d="M59.1714 12.95H56.6044V3.48101H59.1714V12.95ZM59.1714 2.80101H56.6044V0.489014H59.1714V2.80101Z" fill="white"/>
<path d="M66.2487 3.24301C69.1557 3.24301 71.5697 4.79001 71.5697 8.10501C71.5697 11.454 69.1557 12.95 66.2487 12.95C63.3587 12.95 60.9447 11.403 60.9447 8.10501C60.9447 4.82401 63.3587 3.24301 66.2487 3.24301ZM66.2487 10.604C67.8807 10.604 69.0367 9.82201 69.0367 8.10501C69.0367 6.33701 67.8807 5.60601 66.2487 5.60601C64.6337 5.60601 63.4777 6.30301 63.4777 8.10501C63.4777 9.89001 64.6337 10.604 66.2487 10.604Z" fill="white"/>
<path d="M79.2026 3.41301C83.2316 3.41301 83.3335 6.79601 83.3335 8.19001V12.95H80.7665V8.19001C80.7665 7.44201 80.9195 5.64001 78.4546 5.64001C76.2105 5.64001 75.8876 7.06801 75.8876 8.36001V12.95H73.3036V3.41301H75.8876V4.82401H76.0066C76.6186 3.97401 77.4855 3.41301 79.2026 3.41301Z" fill="white"/>
<path d="M87.8476 12.95H85.2806V3.48101H87.8476V12.95ZM87.8476 2.80101H85.2806V0.489014H87.8476V2.80101Z" fill="white"/>
<path d="M94.5209 7.17001C96.6799 7.49301 99.1279 7.86701 99.1279 10.128C99.1279 12.491 97.4279 12.95 94.5039 12.95C92.3449 12.95 90.8659 12.559 90.1009 11.794C89.4379 11.131 89.4379 10.332 89.4549 9.83901V9.65201H92.1069V9.73701C92.1069 10.553 92.7189 10.927 94.4359 10.927C95.4729 10.927 96.4589 10.791 96.4589 10.162C96.4589 9.44801 95.5409 9.31201 94.5039 9.19301C94.3679 9.17601 94.2319 9.15901 94.0959 9.14201C91.3589 8.78501 89.6589 8.17301 89.6589 6.26901C89.6589 4.94301 90.4239 3.36201 94.0959 3.36201C98.0399 3.36201 98.8729 5.11301 98.8729 6.57501V6.66001H96.2379V6.57501C96.2379 5.82701 95.5919 5.41901 94.0959 5.41901C92.6509 5.41901 92.3449 5.94601 92.3449 6.23501C92.3449 6.66001 92.6339 6.89801 94.2999 7.15301L94.5209 7.17001Z" fill="white"/>
<path d="M104.179 5.62301V9.00601V9.21001C104.179 10.587 104.791 10.4 107.273 10.264V12.78C107.273 12.78 106.763 12.95 104.179 12.95C101.578 12.95 101.578 10.825 101.578 9.44801V5.62301H100.32V3.44701H101.578V0.693014H104.179V3.44701H107.273V5.62301H104.179Z" fill="white"/>
</g>
</svg>
