<svg width="23" height="35" viewBox="0 0 23 35" fill="none" xmlns="http://www.w3.org/2000/svg">
<g id="pin.fill">
<g id="Group">
<path id="Vector" d="M0.0714111 21.4161C0.0714111 22.6256 0.882516 23.4225 2.16321 23.4225H9.86159V30.0678C9.86159 32.2451 10.7723 34.0523 11.1281 34.0523C11.4696 34.0523 12.3803 32.2451 12.3803 30.0678V23.4225H20.0787C21.3593 23.4225 22.1704 22.6256 22.1704 21.4161C22.1704 18.4136 19.7657 15.2403 15.767 13.7889L15.2975 7.25732C17.375 6.07625 19.0825 4.73863 19.8225 3.78523C20.1925 3.30141 20.3775 2.81759 20.3775 2.3907C20.3775 1.52268 19.7087 0.882324 18.7126 0.882324H3.54352C2.53318 0.882324 1.87861 1.52268 1.87861 2.3907C1.87861 2.81759 2.04937 3.30141 2.41934 3.78523C3.1593 4.73863 4.86689 6.07625 6.94446 7.25732L6.47487 13.7889C2.47627 15.2403 0.0714111 18.4136 0.0714111 21.4161Z" fill="#1C1C1E"/>
</g>
</g>
</svg>
