<svg width="18" height="27" viewBox="0 0 18 27" fill="none" xmlns="http://www.w3.org/2000/svg">
<g id="pin.fill">
<g id="Group">
<path id="Vector" d="M0.642853 16.3768C0.642853 17.3018 1.26311 17.9112 2.24247 17.9112H8.12946V22.9929C8.12946 24.6578 8.82589 26.0398 9.09793 26.0398C9.35909 26.0398 10.0555 24.6578 10.0555 22.9929V17.9112H15.9426C16.9218 17.9112 17.5421 17.3018 17.5421 16.3768C17.5421 14.0808 15.7032 11.6542 12.6454 10.5443L12.2863 5.54956C13.875 4.64638 15.1808 3.6235 15.7466 2.89443C16.0296 2.52445 16.1711 2.15447 16.1711 1.82802C16.1711 1.16424 15.6596 0.674561 14.8979 0.674561H3.29799C2.52538 0.674561 2.02483 1.16424 2.02483 1.82802C2.02483 2.15447 2.15541 2.52445 2.43833 2.89443C3.00418 3.6235 4.30999 4.64638 5.89872 5.54956L5.53962 10.5443C2.48186 11.6542 0.642853 14.0808 0.642853 16.3768Z" fill="#1C1C1E"/>
</g>
</g>
</svg>
