<svg width="22" height="27" viewBox="0 0 22 27" fill="none" xmlns="http://www.w3.org/2000/svg">
<g id="wallet.pass.fill">
<g id="Group">
<path id="Vector" d="M4.17745 26.9909H17.5117C20.0982 26.9909 21.404 25.6725 21.404 23.0609V4.01381C21.404 1.38965 20.1108 0.0712891 17.5117 0.0712891H14.3226C13.8956 0.0712891 13.6069 0.372628 13.6069 0.824637C13.6069 0.887417 13.6069 0.950195 13.6069 1.00042C13.6069 2.63267 12.5019 3.61203 10.8446 3.61203C9.18722 3.61203 8.08231 2.63267 8.08231 1.00042C8.08231 0.950195 8.08231 0.887417 8.08231 0.824637C8.08231 0.372628 7.79352 0.0712891 7.36664 0.0712891H4.17745C1.5784 0.0712891 0.285156 1.38965 0.285156 4.01381V23.0609C0.285156 25.6725 1.59096 26.9909 4.17745 26.9909ZM6.08594 9.42536C5.63393 9.42536 5.30748 9.08635 5.30748 8.63435C5.30748 8.20745 5.63393 7.86844 6.08594 7.86844H15.6158C16.0553 7.86844 16.3817 8.20745 16.3817 8.63435C16.3817 9.08635 16.0553 9.42536 15.6158 9.42536H6.08594ZM6.08594 13.8826C5.63393 13.8826 5.30748 13.5436 5.30748 13.1168C5.30748 12.6773 5.63393 12.3383 6.08594 12.3383H10.5935C11.0455 12.3383 11.372 12.6773 11.372 13.1168C11.372 13.5436 11.0455 13.8826 10.5935 13.8826H6.08594Z" fill="#262626"/>
</g>
</g>
</svg>
