<svg width="34" height="35" viewBox="0 0 34 35" fill="none" xmlns="http://www.w3.org/2000/svg">
<g id="Frame 2608168">
<g id="Petals">
<g id="Group 72">
<path id="Rectangle 130" d="M12.7674 10.8888C8.87465 7.10116 11.5561 0.5 16.9875 0.5C22.4188 0.5 25.1003 7.10116 21.2075 10.8888L16.9875 14.9947L12.7674 10.8888Z" fill="#CBEA7B"/>
<path id="Rectangle 131" d="M12.7928 24.1112C8.90004 27.8988 11.5815 34.5 17.0129 34.5C22.4442 34.5 25.1257 27.8988 21.2329 24.1112L17.0129 20.0053L12.7928 24.1112Z" fill="#CBEA7B"/>
</g>
<g id="Group 73">
<path id="Rectangle 130_2" d="M10.3888 21.732C6.60116 25.6248 0 22.9433 0 17.512C0 12.0806 6.60116 9.39913 10.3888 13.2919L14.4947 17.512L10.3888 21.732Z" fill="#CBEA7B"/>
<path id="Rectangle 131_2" d="M23.6112 21.7075C27.3988 25.6003 34 22.9189 34 17.4875C34 12.0561 27.3988 9.37465 23.6112 13.2674L19.5053 17.4875L23.6112 21.7075Z" fill="#CBEA7B"/>
</g>
</g>
</g>
</svg>
